<svg xmlns="http://www.w3.org/2000/svg" width="19.163" height="20" viewBox="0 0 19.163 20"><defs><style>.a{fill:#fff;}</style></defs><g transform="translate(28 88)"><g transform="translate(-28 -88)"><path class="a" d="M.6,1.233q1.522.039,1.834.505A8.891,8.891,0,0,1,2.647,4.5V8.823a17.572,17.572,0,0,0,.2,3.075,5.713,5.713,0,0,0,1.036,2.53,5.25,5.25,0,0,0,2.233,1.583,9.366,9.366,0,0,0,3.543.6,10.625,10.625,0,0,0,3.182-.428,6.95,6.95,0,0,0,2.27-1.155,5.678,5.678,0,0,0,1.4-1.6,5.509,5.509,0,0,0,.512-1.583A19.685,19.685,0,0,0,17.206,7.9q-.174-4.892-.275-5.138,0-.143-.019-.4t-.019-.35a.736.736,0,0,1,.187-.532,3.58,3.58,0,0,1,.986-.221,4.381,4.381,0,0,0,1.048-.169,3.327,3.327,0,0,0,.05-.4,5.454,5.454,0,0,0-.075-.662L18.866,0A16.629,16.629,0,0,1,16.42.13L13.863,0H12.815L12.79,1.116l.175.039,1.248-.026a1.242,1.242,0,0,1,.96.441,2.108,2.108,0,0,1,.3,1.142l.05.766q.075,1.116.169,2.069t.137,1.589q.044.636.044,1.661a12.168,12.168,0,0,1-.262,2.971,5.809,5.809,0,0,1-.661,1.479,3.262,3.262,0,0,1-.811.831,3.984,3.984,0,0,1-1.235.661,7.466,7.466,0,0,1-2.383.363,4.505,4.505,0,0,1-2.208-.61,3.111,3.111,0,0,1-1.2-1.194,5.963,5.963,0,0,1-.636-2.621L6.3,7.046,6.29,4.074q0-.078-.006-.331t-.006-.422A4.413,4.413,0,0,1,6.44,1.61a1.173,1.173,0,0,1,.986-.324,10.025,10.025,0,0,0,1.547-.117V1.052L8.947.221,8.96.039Q8.586.065,7.887.065L6.065.13q-1.023.039-2.1.039Q3.545.169,1.9.078,1.25.027.5.027q-.337,0-.5.013L.039,1.181A4.327,4.327,0,0,0,.6,1.233Z" transform="translate(-0.002)"/><path class="a" d="M18.769,402H.4a.377.377,0,0,0-.287.119.426.426,0,0,0-.112.3v.848a.427.427,0,0,0,.112.3A.376.376,0,0,0,.4,403.7H18.769a.376.376,0,0,0,.287-.119.427.427,0,0,0,.112-.3v-.848a.427.427,0,0,0-.112-.3A.377.377,0,0,0,18.769,402Z" transform="translate(-0.005 -383.696)"/></g></g></svg>