<svg xmlns="http://www.w3.org/2000/svg" width="18.333" height="20" viewBox="0 0 18.333 20"><defs><style>.a{fill:#fff;}</style></defs><g transform="translate(0)"><path class="a" d="M35.412,10.742a6.284,6.284,0,0,0-3.477-1.9,14.17,14.17,0,0,0,1.954-1,4.334,4.334,0,0,0,1.237-1.367A3.392,3.392,0,0,0,35.542,4.8a4.556,4.556,0,0,0-.273-1.588,3.986,3.986,0,0,0-.846-1.354,4.914,4.914,0,0,0-1.328-.99,8.423,8.423,0,0,0-1.25-.508A9.849,9.849,0,0,0,29.358.013h-.964q-.26,0-.528-.007L27.587,0c-.043,0-.1,0-.183.006s-.139.007-.182.007l-.586.013L21.688.2,18.3.273l.052,1.081q1.094.143,1.484.169a1.99,1.99,0,0,1,.9.2q.143.1.156.156a4.657,4.657,0,0,1,.143,1.419q.052,1.927.117,5.26l.026,6.471a20.2,20.2,0,0,1-.117,2.526,1.83,1.83,0,0,1-.273.664,7.229,7.229,0,0,1-1.6.4q-.3.039-.885.156L18.277,20q3.112-.1,3.542-.143,2.786-.17,3.88-.143l2.565.052a12.242,12.242,0,0,0,2.578-.143,10.441,10.441,0,0,0,2.643-.781,6.138,6.138,0,0,0,1.823-1.406,4.322,4.322,0,0,0,.925-1.524,6.494,6.494,0,0,0,.378-2.1A4.573,4.573,0,0,0,35.412,10.742Zm-10.2-9.231a10.641,10.641,0,0,1,1.693-.169,4.862,4.862,0,0,1,3.32.977,3.115,3.115,0,0,1,1.107,2.435,3.376,3.376,0,0,1-1.159,2.917,5.8,5.8,0,0,1-3.437.846,9.1,9.1,0,0,1-1.419-.091q-.013-.443-.013-1l.013-1.276q.013-2.044-.078-3.633Q25.217,2.084,25.217,1.511Zm6.51,15.039a3.339,3.339,0,0,1-1.588,1.471,6.474,6.474,0,0,1-2.813.534,4.732,4.732,0,0,1-1.823-.416,1.678,1.678,0,0,1-.156-.573l-.039-3.516.013-2.253V9.922a4.393,4.393,0,0,1,1.315-.13,9.231,9.231,0,0,1,3.216.417,3.793,3.793,0,0,1,1.836,1.641,4.421,4.421,0,0,1,.534,2.344A4.924,4.924,0,0,1,31.728,16.549Z" transform="translate(-18.277 0)"/></g></svg>