<svg xmlns="http://www.w3.org/2000/svg" width="9.643" height="20" viewBox="0 0 9.643 20"><defs><style>.a{fill:#fff;}</style></defs><g transform="translate(-73.089)"><path class="a" d="M82.393.033q-.329.033-.64.059-1.394.117-2.015.117-.32,0-.687-.026L76.065,0l-.179,1.341a2.555,2.555,0,0,0,.358.052,2.748,2.748,0,0,1,1.356.365v.495l-.075.651-.207,1.758-.151.82-.273,2.044q0,.013-.033.15t-.085.4q-.052.261-.118.606t-.151.872q-.085.527-.16,1.1l-.113.833-.527,3.49-.254,1.809a3.7,3.7,0,0,1-.386,1.315,4.639,4.639,0,0,1-1.092.508l-.725.26-.16,1.107q.226-.026.923-.117a13.5,13.5,0,0,1,1.639-.143l1.865.026q1.186.17,1.365.222a1.4,1.4,0,0,0,.264.039,3.516,3.516,0,0,0,.4-.026,1.081,1.081,0,0,1,.217-.013q.019-.13.085-.534a6.193,6.193,0,0,0,.066-.755q-.283-.065-.622-.13a7.125,7.125,0,0,1-1.121-.273,1.385,1.385,0,0,1-.009-.352l.113-.586.4-3.06.358-2.057.575-4.049q.207-1.393.622-3.984.038-.495.122-1.068a10.234,10.234,0,0,1,.226-1.146,6.06,6.06,0,0,1,.951-.4,7.449,7.449,0,0,0,1.027-.4Q82.61.873,82.676.5q.038-.248.056-.495Z" transform="translate(0)"/></g></svg>