<svg xmlns="http://www.w3.org/2000/svg" width="20.011" height="20.011" viewBox="0 0 20.011 20.011"><defs><style>.a{fill:#fff;}</style></defs><g transform="translate(0)"><path class="a" d="M8.63,164.235l-1.84,1.84a2.363,2.363,0,1,1-3.341-3.341l3.694-3.694a2.36,2.36,0,0,1,3.341,0,1.013,1.013,0,0,0,1.448.015L13.09,157.9a5.126,5.126,0,0,0-7.909-.805l-3.68,3.68a5.127,5.127,0,1,0,7.251,7.251l3.31-3.31A6.491,6.491,0,0,1,8.63,164.235Zm0,0" transform="translate(-0.002 -149.511)"/><path class="a" d="M188.721,1.5a5.133,5.133,0,0,0-7.251,0l-3.31,3.31a6.488,6.488,0,0,1,3.432.477l1.84-1.84a2.363,2.363,0,0,1,3.341,3.341l-3.694,3.694a2.352,2.352,0,0,1-3.109.178,2.317,2.317,0,0,1-.218-.193,1.035,1.035,0,0,0-1.463,0l-1.158,1.158a5.126,5.126,0,0,0,7.908.805l3.68-3.68A5.133,5.133,0,0,0,188.721,1.5Zm0,0" transform="translate(-170.21 0.001)"/></g></svg>